<?xml version="1.0" standalone="no"?>
<!DOCTYPE svg PUBLIC "-//W3C//DTD SVG 20010904//EN"
 "http://www.w3.org/TR/2001/REC-SVG-20010904/DTD/svg10.dtd">
<svg version="1.0" xmlns="http://www.w3.org/2000/svg"
 width="4724.000000pt" height="12195.000000pt" viewBox="0 0 4724.000000 12195.000000"
 preserveAspectRatio="xMidYMid meet">

<g transform="translate(0.000000,12195.000000) scale(0.100000,-0.100000)"
fill="#000000" stroke="none">
<path d="M0 60975 l0 -60975 23620 0 23620 0 0 60975 0 60975 -23620 0 -23620
0 0 -60975z m43230 6945 c0 -6144 4 -10490 9 -10490 11 0 401 173 701 311 124
57 438 209 698 339 259 130 472 234 472 232 0 -3 -33 -43 -72 -90 -287 -337
-937 -808 -1640 -1187 l-167 -90 -1 -2947 0 -2948 -4125 0 -4125 0 0 -3757 -1
-3758 -3757 3763 -3757 3763 -72 -1 -73 0 0 575 0 575 312 0 313 0 2937 -2937
2938 -2938 0 2938 0 2937 4120 0 c3287 0 4122 3 4125 13 3 6 4 946 3 2088 l-3
2076 -150 -64 c-1968 -839 -4803 -1664 -7920 -2307 -148 -31 -279 -60 -290
-65 -12 -5 -28 -30 -39 -62 -107 -305 -293 -744 -441 -1039 -518 -1036 -1120
-1626 -1794 -1761 -215 -43 -486 -35 -706 21 -495 126 -829 494 -921 1015 -25
138 -25 424 -1 555 50 270 172 503 372 709 260 269 595 462 1090 627 314 105
571 167 990 240 449 77 963 187 985 210 10 11 353 994 348 999 -2 2 -39 -28
-83 -66 -109 -96 -279 -208 -405 -268 -240 -114 -491 -152 -801 -121 -678 69
-1111 444 -1245 1078 -10 45 -20 82 -23 82 -3 0 -19 -19 -35 -43 -136 -195
-419 -502 -602 -653 -198 -163 -435 -300 -645 -373 -293 -101 -656 -128 -893
-67 -287 74 -500 260 -621 543 -45 104 -82 234 -96 341 -7 48 -16 91 -19 95
-4 5 -28 -20 -53 -55 -135 -191 -334 -411 -490 -544 -314 -269 -618 -398 -967
-411 -346 -13 -622 105 -816 350 -152 193 -234 455 -234 752 0 439 173 1169
540 2278 70 213 126 387 123 387 -2 0 -61 -53 -131 -117 -271 -249 -569 -497
-903 -748 l-194 -146 0 -267 c-1 -285 -9 -369 -61 -600 -80 -360 -251 -716
-479 -998 -96 -118 -276 -291 -395 -380 -270 -202 -589 -352 -923 -433 -235
-58 -385 -75 -662 -75 -218 0 -267 3 -379 23 -567 101 -1044 399 -1370 855
-85 119 -170 275 -222 408 -25 62 -48 122 -53 132 -6 16 -19 0 -71 -85 -475
-777 -954 -1197 -1500 -1315 -121 -26 -393 -26 -505 0 -180 42 -304 107 -427
224 -197 188 -303 455 -326 814 l-7 113 -88 -117 c-377 -500 -783 -833 -1189
-976 -164 -58 -275 -77 -463 -77 -103 0 -194 5 -230 13 -327 71 -567 259 -721
564 -109 217 -163 431 -187 748 l-12 155 -80 -105 c-556 -733 -1186 -1175
-1885 -1320 -254 -52 -590 -73 -815 -51 -908 91 -1485 657 -1590 1559 -33 277
-14 549 67 980 17 90 29 165 27 167 -2 2 -51 -5 -109 -16 -509 -93 -1188 -170
-1748 -199 -260 -13 -989 -13 -1242 0 -1389 73 -2636 358 -3825 876 -247 107
-711 340 -942 473 -178 102 -397 234 -417 252 -5 4 92 -26 215 -66 1055 -347
2442 -639 3679 -775 693 -76 1214 -104 1920 -104 737 0 1206 28 1900 115 212
26 695 101 741 115 10 2 44 82 93 217 292 794 707 1529 1159 2052 123 143 367
381 487 477 302 240 592 382 908 445 119 24 410 23 539 -1 465 -85 759 -330
860 -714 31 -119 42 -347 24 -487 -106 -802 -834 -1505 -2138 -2064 -448 -192
-883 -337 -1445 -482 l-36 -9 -40 -168 c-84 -349 -106 -517 -107 -812 0 -193
3 -250 19 -320 112 -515 412 -804 948 -912 99 -20 142 -23 353 -22 261 0 327
8 544 65 359 95 688 291 1004 598 351 342 652 774 957 1376 163 322 241 500
294 673 225 726 558 1436 937 1997 185 274 345 470 551 675 330 328 685 536
1035 607 127 25 407 23 563 -5 398 -72 691 -274 897 -618 32 -54 59 -91 62
-83 4 13 139 371 212 563 61 161 152 231 299 230 61 0 85 -5 126 -27 101 -52
162 -160 152 -271 -4 -34 -125 -372 -371 -1031 -807 -2163 -1138 -3144 -1252
-3710 -47 -236 -59 -353 -52 -530 8 -220 45 -334 133 -421 72 -69 134 -88 289
-88 156 0 216 14 362 84 424 206 854 781 1323 1771 123 258 320 695 320 708 0
5 10 22 23 38 13 15 42 59 66 97 326 529 868 826 1505 826 218 0 368 -35 561
-130 327 -161 585 -462 710 -829 55 -160 94 -399 81 -485 -26 -158 -148 -254
-310 -244 -88 6 -139 31 -195 94 -47 54 -66 110 -76 227 -20 257 -160 517
-349 651 -140 100 -249 136 -411 136 -326 0 -608 -119 -846 -359 -237 -238
-384 -556 -444 -956 -114 -755 401 -1446 1198 -1607 98 -20 141 -23 337 -22
242 0 346 12 533 59 224 57 426 146 617 272 155 103 356 302 459 457 217 327
331 708 331 1111 0 295 -60 559 -201 893 -49 115 -217 454 -320 643 -76 141
-429 771 -436 778 -7 9 -117 -106 -222 -234 -90 -109 -116 -135 -166 -160 -50
-26 -69 -30 -134 -29 -176 1 -284 109 -285 284 -1 63 4 84 27 130 30 61 155
207 368 432 76 80 139 149 139 153 0 4 -23 67 -50 141 -62 165 -113 360 -135
522 -24 166 -16 451 15 597 110 517 429 898 820 980 91 19 237 19 319 0 113
-27 187 -70 281 -165 96 -95 141 -170 184 -307 52 -167 55 -323 10 -539 -80
-392 -320 -844 -664 -1254 -44 -52 -80 -99 -80 -104 0 -5 134 -252 299 -550
416 -753 529 -976 626 -1236 15 -41 31 -79 35 -83 8 -9 195 124 360 256 851
679 1574 1665 1955 2663 68 177 101 228 176 269 48 27 63 30 134 30 173 -2
285 -103 285 -258 0 -61 -17 -114 -211 -659 -734 -2065 -863 -2431 -1030
-2928 -283 -839 -366 -1179 -376 -1525 -10 -357 56 -531 231 -611 77 -35 212
-44 331 -21 516 97 1000 680 1575 1897 247 523 287 620 460 1120 177 510 338
972 770 2200 144 410 431 1237 637 1839 205 601 382 1110 393 1130 25 50 76
96 135 123 69 32 192 32 250 1 55 -29 110 -89 137 -148 48 -107 63 -55 -375
-1330 -217 -632 -449 -1303 -515 -1490 -66 -187 -254 -718 -417 -1180 -163
-462 -360 -1022 -436 -1245 -131 -381 -155 -451 -194 -575 -9 -27 -43 -135
-76 -240 -144 -452 -280 -963 -335 -1250 -35 -185 -38 -390 -6 -506 44 -165
120 -266 239 -322 58 -27 80 -31 174 -35 393 -16 800 188 1162 583 240 262
467 598 718 1060 100 186 320 629 412 832 73 159 462 1188 888 2348 215 583
401 1077 415 1098 53 81 171 135 268 122 153 -20 256 -129 256 -272 0 -57 -34
-157 -404 -1180 -420 -1163 -540 -1488 -849 -2308 -303 -805 -362 -1005 -383
-1295 -8 -115 10 -311 37 -418 75 -289 271 -473 577 -543 130 -29 347 -37 446
-15 101 23 265 106 381 193 360 270 771 843 1139 1588 236 478 384 840 620
1525 60 173 776 2074 937 2487 31 79 51 113 85 148 86 89 195 112 302 66 70
-31 154 -122 177 -191 33 -101 25 -132 -157 -600 -548 -1405 -808 -2111 -1423
-3865 -739 -2108 -822 -2351 -803 -2371 6 -5 725 154 1228 272 2334 549 4533
1204 6455 1924 204 76 392 148 418 159 l47 20 -2 10148 -3 10148 -7372 3
-7373 2 0 580 0 580 7955 0 7955 0 0 -10490z m-33050 6974 c182 -20 347 -56
510 -110 814 -270 1270 -934 1360 -1979 5 -66 10 -238 10 -382 l0 -263 -719 0
-719 0 -5 313 c-5 324 -14 411 -58 559 -57 194 -174 342 -329 416 -144 68
-323 94 -505 72 -357 -42 -551 -238 -625 -629 -21 -114 -31 -324 -21 -459 37
-480 221 -872 626 -1332 116 -132 394 -404 685 -670 775 -708 1107 -1102 1363
-1615 248 -499 356 -1065 318 -1675 -38 -606 -185 -1070 -459 -1439 -159 -216
-404 -417 -657 -540 -365 -179 -862 -264 -1353 -233 -415 27 -702 98 -1001
248 -624 314 -979 901 -1077 1779 -10 94 -17 284 -21 578 l-6 437 727 0 726 0
0 -405 c0 -432 7 -542 46 -694 37 -145 94 -251 184 -342 78 -78 130 -113 226
-148 125 -47 295 -67 448 -51 136 14 203 32 306 82 214 104 345 335 380 669
46 449 -69 891 -335 1289 -188 281 -409 517 -990 1055 -665 616 -930 907
-1171 1288 -252 397 -397 795 -471 1292 -25 172 -25 761 0 950 75 555 251 989
531 1305 253 286 614 491 1031 585 316 71 685 88 1045 49z m6935 -121 c300
-50 488 -105 695 -204 311 -149 564 -375 741 -659 179 -288 291 -650 341
-1095 19 -173 19 -1948 0 -2120 -72 -639 -276 -1110 -624 -1440 -295 -281
-671 -445 -1189 -521 -91 -13 -221 -18 -651 -21 l-538 -5 0 -1839 0 -1839
-760 0 -760 0 0 4885 0 4886 1308 -4 c1281 -3 1310 -3 1437 -24z m8105 -663
l0 -690 -1330 0 -1330 0 0 -1370 0 -1370 1055 0 1055 0 0 -695 0 -695 -1055 0
-1055 0 0 -1435 0 -1435 1330 0 1330 0 0 -695 0 -695 -2095 0 -2095 0 0 4885
0 4885 2095 0 2095 0 0 -690z m6533 -4177 c428 -2678 781 -4876 783 -4886 5
-16 -34 -17 -768 -15 l-773 3 -132 880 c-72 484 -132 883 -132 888 -1 4 -426
7 -946 7 l-945 0 -5 -22 c-2 -13 -61 -401 -130 -863 -69 -462 -128 -852 -131
-867 l-6 -28 -700 0 -700 0 6 33 c3 17 352 2199 776 4847 424 2648 773 4832
777 4853 l6 37 1121 0 1121 0 778 -4867z m4437 2740 c0 -1362 4 -2123 10
-2113 5 8 458 966 1007 2128 l998 2112 763 0 c420 0 761 -3 759 -7 -2 -5 -482
-983 -1066 -2176 l-1062 -2167 1062 -2693 c584 -1480 1064 -2700 1066 -2709 5
-17 -37 -18 -778 -18 l-784 0 -744 1943 c-409 1068 -747 1945 -750 1949 -4 4
-113 -193 -244 -438 l-237 -446 0 -1504 0 -1504 -765 0 -765 0 0 4885 0 4885
765 0 765 0 0 -2127z m-8009 -9429 c116 -35 202 -96 261 -186 98 -150 109
-314 33 -476 -140 -297 -544 -352 -774 -106 -137 146 -167 342 -80 519 55 112
183 216 308 251 66 18 188 17 252 -2z"/>
<path d="M23933 62037 c-52 -19 -151 -97 -195 -151 -90 -114 -151 -282 -166
-463 -10 -119 -1 -282 22 -390 26 -123 39 -173 45 -173 15 0 174 261 241 396
138 274 216 564 191 701 -14 75 -68 107 -138 80z"/>
<path d="M13347 61005 c-409 -78 -818 -403 -1225 -971 -179 -251 -356 -553
-536 -914 -130 -261 -270 -570 -261 -578 6 -6 427 100 529 133 111 36 389 147
581 232 578 256 996 520 1285 812 138 140 225 258 296 406 73 151 95 239 101
402 5 115 3 141 -16 202 -41 134 -145 222 -310 263 -105 26 -339 33 -444 13z"/>
<path d="M17673 61006 c-405 -78 -813 -425 -1216 -1037 -567 -860 -1044 -2183
-1138 -3154 -15 -155 -6 -518 15 -645 37 -217 92 -352 181 -448 93 -101 198
-142 358 -142 466 1 950 395 1412 1151 369 604 739 1433 1256 2818 l170 454
-11 93 c-37 337 -154 579 -361 746 -73 59 -214 128 -309 152 -90 23 -267 29
-357 12z"/>
<path d="M32665 53740 c-181 -37 -422 -84 -535 -105 -231 -42 -528 -114 -700
-170 -609 -198 -936 -469 -1041 -865 -34 -127 -32 -311 5 -435 15 -49 43 -120
63 -157 43 -83 142 -192 220 -244 233 -155 603 -166 926 -28 529 227 993 869
1344 1859 79 220 77 215 61 214 -7 -1 -161 -32 -343 -69z"/>
<path d="M15897 73413 c-4 -3 -7 -750 -7 -1660 l0 -1653 438 0 c391 0 447 2
530 19 306 64 467 273 512 670 8 66 10 393 8 1031 -4 929 -4 936 -27 1035 -56
250 -156 398 -325 480 -90 44 -165 63 -291 75 -114 11 -828 13 -838 3z"/>
<path d="M29767 73035 c-3 -22 -168 -1124 -367 -2450 -198 -1325 -362 -2420
-365 -2432 l-5 -23 746 0 746 0 -5 33 c-3 17 -168 1121 -367 2452 -199 1331
-365 2429 -369 2440 -6 16 -9 12 -14 -20z"/>
</g>
</svg>
