<?xml version="1.0" standalone="no"?>
<!DOCTYPE svg PUBLIC "-//W3C//DTD SVG 20010904//EN"
 "http://www.w3.org/TR/2001/REC-SVG-20010904/DTD/svg10.dtd">
<svg version="1.0" xmlns="http://www.w3.org/2000/svg"
 width="700.000000pt" height="700.000000pt" viewBox="0 0 700.000000 700.000000"
 preserveAspectRatio="xMidYMid meet">
<metadata>
Created by potrace 1.14, written by Peter Selinger 2001-2017
</metadata>
<g transform="translate(0.000000,700.000000) scale(0.100000,-0.100000)"
fill="#000000" stroke="none">
<path d="M4715 4913 c-137 -2 -253 -7 -257 -11 -4 -4 -3 -14 2 -22 8 -13 10
-12 10 3 0 25 18 21 22 -5 4 -30 44 -37 218 -37 74 -1 172 -4 218 -8 l82 -6 0
-828 0 -829 -37 -16 c-107 -44 -588 -179 -618 -172 -16 3 26 134 131 415 27
71 44 130 40 139 -12 31 -32 -4 -85 -144 -90 -236 -153 -332 -221 -332 -36 0
-70 31 -70 64 0 13 23 91 51 173 74 216 80 236 71 245 -14 14 -29 -12 -76
-135 -96 -247 -169 -352 -239 -345 -31 3 -32 5 -35 50 -2 38 15 102 87 321 89
267 100 307 83 307 -12 0 -25 -30 -109 -260 -94 -259 -143 -361 -187 -395 -40
-30 -71 -32 -86 -4 -14 26 -13 29 61 260 32 102 59 188 59 192 0 23 -26 -2
-66 -65 -45 -70 -139 -178 -155 -178 -5 0 -26 32 -48 72 l-40 71 30 58 c16 32
29 68 29 79 0 58 -45 77 -94 39 -24 -19 -26 -27 -26 -89 0 -47 -6 -78 -17 -99
-20 -34 -11 -51 18 -33 28 18 40 6 74 -71 36 -78 39 -144 9 -184 -33 -45 -82
-73 -126 -73 -113 0 -174 103 -115 191 44 66 113 65 147 -2 21 -40 40 -44 40
-8 0 28 -27 77 -49 89 -28 15 -88 12 -121 -5 -20 -10 -49 -48 -87 -113 -70
-120 -103 -155 -140 -150 -25 3 -28 7 -31 48 -2 34 13 91 63 237 36 106 65
195 65 198 0 16 -32 1 -42 -20 -13 -30 -16 -30 -48 -5 -16 13 -41 20 -71 20
-86 0 -144 -62 -217 -236 -52 -122 -103 -192 -162 -221 -47 -24 -109 -30 -141
-13 -25 14 -49 62 -49 97 0 61 8 69 100 108 141 58 188 100 203 182 5 23 1 38
-13 56 -66 83 -198 8 -281 -160 -40 -80 -41 -80 -202 -82 -146 -1 -344 22
-465 55 -9 2 10 -9 43 -25 123 -60 201 -75 398 -74 l177 1 0 -51 c0 -101 55
-157 153 -157 54 0 94 18 151 66 45 39 56 42 56 15 0 -11 12 -33 26 -50 39
-46 87 -43 153 9 28 22 53 40 56 40 3 0 5 -9 5 -20 0 -30 36 -60 70 -60 42 0
82 23 119 67 l31 38 32 -39 c53 -64 136 -84 216 -51 69 29 100 71 121 161 10
41 21 59 52 84 22 18 42 30 44 28 3 -2 -4 -36 -15 -74 -26 -90 -27 -175 -2
-197 35 -32 113 -16 156 32 l18 20 22 -32 c16 -23 31 -33 55 -35 51 -5 77 5
122 45 l41 37 19 -24 c10 -14 19 -28 19 -31 0 -4 13 -12 30 -19 30 -12 89 -10
124 5 17 7 18 5 12 -21 -4 -16 -11 -33 -16 -38 -4 -4 -50 -19 -102 -32 -152
-40 -195 -86 -168 -182 11 -44 40 -62 96 -62 71 0 120 46 175 163 l29 63 190
47 c105 26 250 68 323 93 72 25 142 48 155 51 l22 5 0 -169 0 -170 -202 -6
c-112 -4 -246 -7 -298 -8 -52 0 -89 -3 -82 -6 6 -2 10 -9 6 -14 -7 -12 -44
-12 -44 1 0 6 -4 10 -9 10 -5 0 -4 -13 2 -30 9 -23 14 -27 25 -18 9 8 16 8 20
2 5 -7 130 -11 340 -13 l332 -3 0 236 0 235 60 41 c33 22 60 43 60 46 0 2 -17
-3 -37 -12 -21 -9 -48 -20 -60 -25 l-23 -9 0 855 0 855 -67 -2 c-38 -2 -180
-4 -318 -5z m-1175 -1338 c0 -9 -8 -30 -17 -48 l-18 -32 -3 33 c-3 32 11 62
29 62 5 0 9 -7 9 -15z m-820 -109 c0 -47 -35 -86 -112 -123 -80 -39 -108 -48
-108 -33 0 33 83 156 120 176 14 7 42 13 63 14 36 0 37 -1 37 -34z m365 0 l25
-33 -49 -116 c-78 -181 -133 -257 -188 -257 -58 0 -70 87 -29 210 67 197 174
284 241 196z m1175 -571 c0 -28 -38 -91 -75 -123 -42 -37 -85 -42 -115 -12
-46 46 -1 113 92 135 74 18 98 18 98 0z m217 -157 c-3 -8 -6 -5 -6 6 -1 11 2
17 5 13 3 -3 4 -12 1 -19z"/>
<path d="M2270 4607 c-55 -36 -73 -78 -74 -166 -1 -97 15 -128 129 -249 92
-99 105 -122 105 -181 0 -44 -26 -73 -65 -73 -43 0 -65 28 -65 84 l0 48 -55 0
-55 0 0 -41 c0 -142 72 -210 209 -197 95 9 151 80 151 193 0 82 -22 123 -123
235 -95 104 -117 140 -117 192 0 43 25 68 67 68 36 0 53 -17 62 -63 6 -31 9
-32 59 -35 l52 -3 0 34 c0 74 -38 138 -97 163 -52 22 -144 18 -183 -9z"/>
<path d="M2750 4228 l0 -398 55 0 54 0 3 153 3 152 70 6 c80 6 102 16 139 60
25 30 26 34 26 177 0 126 -3 151 -19 175 -32 49 -58 60 -145 64 -45 2 -105 5
-133 7 l-53 3 0 -399z m225 272 c12 -10 15 -36 15 -114 0 -124 -7 -137 -75
-139 l-50 -2 -3 35 c-2 19 -1 82 3 139 l7 103 44 -5 c24 -2 51 -10 59 -17z"/>
<path d="M3290 4225 l0 -395 165 0 165 0 0 55 0 55 -105 0 -105 0 0 120 0 120
85 0 85 0 0 55 0 55 -85 0 -85 0 0 115 0 115 89 0 c117 0 121 2 121 56 l0 44
-165 0 -165 0 0 -395z"/>
<path d="M3917 4598 c-8 -33 -117 -724 -117 -742 0 -10 15 -17 45 -22 25 -3
48 -4 51 -1 3 3 9 33 14 68 5 34 15 66 22 70 7 5 45 9 84 9 l71 0 7 -62 c3
-34 10 -66 16 -72 5 -5 34 -11 64 -14 l54 -4 -8 43 c-9 49 -120 737 -120 744
0 3 -40 5 -89 5 -84 0 -89 -1 -94 -22z m118 -303 c14 -94 28 -180 30 -192 5
-22 2 -23 -54 -23 -33 0 -62 3 -65 8 -2 4 6 81 20 172 25 174 32 215 39 208 2
-2 16 -80 30 -173z"/>
<path d="M4410 4225 l0 -395 60 0 60 0 0 126 c0 96 4 134 16 160 9 19 19 32
23 29 3 -4 31 -72 62 -153 50 -132 58 -147 84 -154 15 -4 42 -4 60 0 l32 7
-59 150 c-32 83 -69 180 -83 217 l-24 66 80 162 c43 89 79 166 79 171 0 6 -25
9 -56 7 l-56 -3 -70 -150 c-38 -82 -74 -154 -79 -159 -5 -6 -9 55 -9 152 l0
162 -60 0 -60 0 0 -395z"/>
<path d="M3837 3674 c-23 -23 7 -69 37 -58 25 10 17 58 -9 62 -12 2 -24 0 -28
-4z"/>
<path d="M4370 2646 c0 -20 2 -36 4 -36 8 0 12 61 4 66 -4 3 -8 -11 -8 -30z"/>
<path d="M4371 2194 c0 -11 3 -14 6 -6 3 7 2 16 -1 19 -3 4 -6 -2 -5 -13z"/>
</g>
</svg>
