<?xml version="1.0" standalone="no"?>
<!DOCTYPE svg PUBLIC "-//W3C//DTD SVG 20010904//EN"
 "http://www.w3.org/TR/2001/REC-SVG-20010904/DTD/svg10.dtd">
<svg version="1.0" xmlns="http://www.w3.org/2000/svg"
 width="720.000000pt" height="720.000000pt" viewBox="0 0 720.000000 720.000000"
 preserveAspectRatio="xMidYMid meet">

<g transform="translate(0.000000,720.000000) scale(0.100000,-0.100000)"
fill="#000000" stroke="none">
<path d="M4549 5048 c-1 -7 -2 -26 -3 -43 l-1 -30 303 -3 302 -2 0 -854 0
-854 -83 -30 c-191 -69 -589 -178 -595 -162 -3 8 101 310 163 469 30 80 34 97
22 108 -21 22 -39 -7 -91 -152 -63 -173 -97 -242 -146 -298 -34 -39 -48 -47
-76 -47 -42 0 -74 29 -74 68 0 15 32 116 72 225 60 165 69 200 57 207 -23 15
-35 -6 -97 -170 -96 -254 -161 -340 -244 -328 -19 2 -23 10 -26 45 -3 45 17
111 138 456 62 176 67 209 28 194 -8 -2 -52 -112 -97 -243 -95 -271 -138 -368
-188 -419 -50 -52 -103 -44 -103 15 0 14 31 118 70 230 38 112 67 207 64 212
-14 22 -36 2 -71 -64 -36 -69 -139 -188 -162 -188 -6 0 -27 32 -47 72 l-36 71
31 60 c35 67 38 93 15 125 -23 33 -66 29 -99 -10 -25 -30 -27 -38 -23 -100 5
-57 2 -70 -13 -84 -24 -21 -25 -54 -2 -54 9 0 24 7 33 15 16 14 20 10 56 -57
62 -119 52 -196 -36 -255 -69 -47 -176 -20 -206 53 -29 70 23 164 90 164 41 0
52 -9 71 -53 15 -37 38 -49 48 -24 9 25 -5 67 -33 97 -24 25 -36 30 -77 30
-75 0 -104 -24 -159 -130 -56 -109 -100 -160 -138 -160 -62 0 -53 62 43 326
32 87 56 165 54 172 -9 22 -32 13 -48 -18 l-16 -31 -30 26 c-35 29 -93 34
-138 11 -62 -32 -127 -131 -176 -269 -25 -71 -86 -155 -135 -188 -58 -39 -134
-41 -173 -5 -29 27 -40 75 -29 125 7 31 13 36 73 56 80 27 123 49 170 86 101
79 87 209 -22 209 -87 0 -154 -59 -217 -192 l-37 -77 -55 -8 c-147 -21 -392
-1 -573 48 -37 9 -65 14 -62 9 3 -4 47 -26 100 -49 132 -58 231 -74 421 -68
l151 4 -1 -56 c-1 -101 57 -161 157 -161 63 0 113 22 164 72 l43 42 6 -32 c10
-48 46 -82 89 -82 45 0 69 12 118 58 37 36 37 36 37 11 0 -36 39 -69 81 -69
42 0 88 27 124 74 l27 36 22 -32 c87 -130 305 -89 351 66 8 27 15 58 15 69 0
19 6 25 64 69 l29 22 -7 -25 c-51 -176 -53 -222 -15 -260 38 -38 125 -17 171
43 15 20 18 21 18 5 0 -10 11 -29 25 -42 44 -45 137 -26 191 37 13 17 26 29
27 27 1 -2 9 -17 17 -34 9 -16 27 -35 40 -42 35 -18 101 -16 128 3 25 17 27
11 11 -33 -9 -28 -16 -32 -91 -47 -157 -31 -213 -78 -205 -170 6 -66 38 -96
105 -96 80 0 150 67 198 190 9 25 18 46 18 47 1 1 64 16 141 33 169 39 382
101 482 141 40 16 76 29 78 29 3 0 5 -79 5 -175 l0 -175 -295 0 -295 0 -10
-24 c-25 -66 -53 -61 343 -64 l357 -3 0 245 0 244 70 47 c98 65 109 85 22 41
-26 -13 -57 -27 -69 -30 l-23 -7 0 875 0 876 -350 0 c-273 0 -350 -3 -351 -12z
m-909 -1368 c0 -6 -8 -27 -17 -48 l-17 -37 -4 33 c-3 32 11 62 29 62 5 0 9 -5
9 -10z m-842 -117 c2 -25 -4 -38 -32 -66 -34 -34 -116 -79 -169 -92 -26 -7
-27 -6 -18 17 18 48 73 128 104 153 24 19 42 25 72 23 37 -3 40 -5 43 -35z
m375 0 c19 -33 19 -33 -9 -105 -74 -197 -150 -308 -211 -308 -53 0 -65 54 -38
169 22 90 69 185 120 237 38 40 47 45 81 42 31 -2 42 -9 57 -35z m1199 -615
c-9 -24 -35 -62 -58 -85 -32 -34 -48 -43 -74 -43 -78 0 -96 78 -29 128 19 14
161 52 171 46 3 -2 -1 -23 -10 -46z"/>
<path d="M2338 4750 c-54 -29 -80 -79 -86 -165 -7 -105 22 -163 134 -273 90
-88 114 -128 114 -187 0 -63 -57 -95 -108 -59 -18 12 -22 25 -22 70 l0 54 -60
0 -60 0 0 -63 c0 -114 57 -182 163 -194 130 -15 217 69 217 208 0 87 -25 134
-132 245 -104 108 -118 132 -118 194 0 47 21 70 64 70 41 0 56 -17 63 -70 l6
-40 58 0 59 0 0 33 c0 81 -44 157 -107 183 -47 20 -141 17 -185 -6z"/>
<path d="M2820 4351 l0 -411 65 0 65 0 0 155 0 155 58 0 c61 0 126 24 153 56
34 41 41 79 37 217 -3 147 -9 165 -72 211 -24 18 -45 21 -167 24 l-139 4 0
-411z m239 275 c13 -13 16 -37 16 -120 0 -124 -7 -136 -76 -136 l-49 0 0 141
0 142 46 -6 c25 -2 53 -12 63 -21z"/>
<path d="M3380 4350 l0 -410 175 0 175 0 0 60 0 60 -110 0 -110 0 0 120 0 120
90 0 90 0 0 60 0 60 -90 0 -90 0 0 115 0 115 110 0 110 0 0 55 0 55 -175 0
-175 0 0 -410z"/>
<path d="M4025 4738 c-6 -30 -125 -778 -125 -789 0 -5 26 -9 59 -9 l59 0 6 58
c12 96 7 92 96 92 l78 0 6 -47 c15 -110 10 -103 83 -103 l65 0 -6 28 c-3 15
-28 171 -56 347 -28 176 -55 348 -61 383 l-11 62 -94 0 c-89 0 -94 -1 -99 -22z
m120 -309 c14 -90 27 -179 30 -196 l6 -33 -61 0 c-41 0 -60 4 -60 13 -1 22 54
386 58 383 1 -2 14 -77 27 -167z"/>
<path d="M4530 4350 l0 -410 65 0 65 0 0 130 c0 100 4 138 16 162 9 17 19 26
23 22 7 -8 26 -56 103 -261 l19 -53 65 0 c35 0 64 3 64 8 0 4 -38 103 -85 221
-47 118 -85 220 -85 227 0 7 38 89 85 183 47 95 85 174 85 176 0 3 -28 5 -63
5 l-63 0 -80 -169 -79 -169 -3 169 -2 169 -65 0 -65 0 0 -410z"/>
<path d="M3941 3776 c-16 -20 -5 -53 20 -61 27 -9 51 13 47 44 -2 20 -9 27
-29 29 -14 2 -31 -4 -38 -12z"/>
<path d="M4436 2332 c-3 -5 1 -9 9 -9 8 0 12 4 9 9 -3 4 -7 8 -9 8 -2 0 -6 -4
-9 -8z"/>
<path d="M4463 2295 c0 -8 4 -12 9 -9 5 3 6 10 3 15 -9 13 -12 11 -12 -6z"/>
<path d="M4456 2262 c-3 -5 1 -9 9 -9 8 0 12 4 9 9 -3 4 -7 8 -9 8 -2 0 -6 -4
-9 -8z"/>
<path d="M4511 2222 c-6 -12 -6 -23 0 -33 8 -12 10 -12 8 1 -3 26 1 40 9 40 5
0 8 -14 7 -30 -1 -17 1 -33 5 -35 3 -2 7 14 7 36 1 42 -18 54 -36 21z"/>
</g>
</svg>
